# Blender v2.79 (sub 0) OBJ File: ''
# www.blender.org
mtllib Ringu.mtl
o Cylinder
v 0.000000 -1.000000 -4.424800
v 0.000000 1.000000 -4.424800
v 0.863236 -1.000000 -4.339779
v 0.863236 1.000000 -4.339779
v 1.693298 -1.000000 -4.087982
v 1.693298 1.000000 -4.087982
v 2.458287 -1.000000 -3.679087
v 2.458287 1.000000 -3.679087
v 3.128806 -1.000000 -3.128806
v 3.128806 1.000000 -3.128806
v 3.679087 -1.000000 -2.458287
v 3.679087 1.000000 -2.458287
v 4.087982 -1.000000 -1.693298
v 4.087982 1.000000 -1.693298
v 4.339779 -1.000000 -0.863236
v 4.339779 1.000000 -0.863236
v 4.424800 -1.000000 -0.000000
v 4.424800 1.000000 -0.000000
v 4.339779 -1.000000 0.863235
v 4.339779 1.000000 0.863235
v 4.087983 -1.000000 1.693297
v 4.087983 1.000000 1.693297
v 3.679087 -1.000000 2.458287
v 3.679087 1.000000 2.458287
v 3.128806 -1.000000 3.128806
v 3.128806 1.000000 3.128806
v 2.458287 -1.000000 3.679087
v 2.458287 1.000000 3.679087
v 1.693297 -1.000000 4.087983
v 1.693297 1.000000 4.087983
v 0.863235 -1.000000 4.339779
v 0.863235 1.000000 4.339779
v -0.000001 -1.000000 4.424800
v -0.000001 1.000000 4.424800
v -0.863238 -1.000000 4.339779
v -0.863238 1.000000 4.339779
v -1.693300 -1.000000 4.087982
v -1.693300 1.000000 4.087982
v -2.458290 -1.000000 3.679086
v -2.458290 1.000000 3.679086
v -3.128808 -1.000000 3.128804
v -3.128808 1.000000 3.128804
v -3.679089 -1.000000 2.458285
v -3.679089 1.000000 2.458285
v -4.087984 -1.000000 1.693295
v -4.087984 1.000000 1.693295
v -4.339780 -1.000000 0.863232
v -4.339780 1.000000 0.863232
v -4.424800 -1.000000 -0.000004
v -4.424800 1.000000 -0.000004
v -4.339778 -1.000000 -0.863240
v -4.339778 1.000000 -0.863240
v -4.087981 -1.000000 -1.693302
v -4.087981 1.000000 -1.693302
v -3.679084 -1.000000 -2.458292
v -3.679084 1.000000 -2.458292
v -3.128802 -1.000000 -3.128810
v -3.128802 1.000000 -3.128810
v -2.458282 -1.000000 -3.679090
v -2.458282 1.000000 -3.679090
v -1.693292 -1.000000 -4.087985
v -1.693292 1.000000 -4.087985
v -0.863229 -1.000000 -4.339780
v -0.863229 1.000000 -4.339780
v -3.403230 1.000000 -2.273965
v -3.403230 -1.000000 -2.273965
v 0.000000 1.000000 4.093030
v 0.000000 -1.000000 4.093030
v 0.798504 1.000000 4.014385
v 0.798504 -1.000000 4.014385
v 1.566329 1.000000 3.781469
v 1.566329 -1.000000 3.781469
v 3.781468 1.000000 -1.566332
v 3.781468 -1.000000 -1.566332
v 3.403232 1.000000 -2.273963
v 3.403231 -1.000000 -2.273963
v 4.014384 1.000000 -0.798507
v 4.014384 -1.000000 -0.798507
v 2.894211 0.999999 -2.894207
v 2.894211 -1.000000 -2.894207
v 0.798512 1.000000 -4.014383
v 0.798512 -1.000000 -4.014383
v 0.000001 1.000000 -4.093030
v 0.000001 -1.000000 -4.093030
v 1.566337 1.000000 -3.781466
v 1.566337 -1.000000 -3.781466
v -4.014383 1.000000 0.798511
v -4.014383 -1.000000 0.798511
v -2.273966 1.000000 3.403230
v -2.273966 -1.000000 3.403230
v -4.093030 1.000000 0.000000
v -4.093030 -1.000000 0.000000
v -3.781466 1.000000 1.566335
v -3.781466 -1.000000 1.566335
v -0.798510 1.000000 -4.014383
v -0.798510 -1.000000 -4.014383
v 2.894206 1.000000 2.894213
v 2.894206 -1.000000 2.894213
v 2.273961 1.000000 3.403233
v 2.273961 -1.000000 3.403233
v 3.403227 1.000000 2.273970
v 3.403227 -1.000000 2.273970
v -4.014383 1.000000 -0.798510
v -4.014383 -1.000000 -0.798510
v -2.273965 1.000000 -3.403230
v -2.273965 -1.000000 -3.403230
v -2.894209 1.000000 -2.894209
v -2.894209 -1.000000 -2.894209
v -3.781467 1.000000 -1.566334
v -3.781467 -1.000000 -1.566334
v 4.093030 1.000000 0.000004
v 4.093030 -1.000000 0.000004
v 2.273968 1.000000 -3.403229
v 2.273968 -1.000000 -3.403229
v 4.014382 1.000000 0.798515
v 4.014382 -1.000000 0.798515
v -2.894209 1.000000 2.894209
v -2.894209 -1.000000 2.894209
v -1.566334 1.000000 -3.781467
v -1.566334 -1.000000 -3.781467
v -3.403230 1.000000 2.273965
v -3.403230 -1.000000 2.273965
v 3.781465 1.000000 1.566339
v 3.781465 -1.000000 1.566339
v -1.566335 1.000000 3.781466
v -1.566335 -1.000000 3.781466
v -0.798510 1.000000 4.014383
v -0.798510 -1.000000 4.014383
vn 0.0980 0.0000 -0.9952
vn 0.2903 0.0000 -0.9569
vn 0.4714 0.0000 -0.8819
vn 0.6344 0.0000 -0.7730
vn 0.7730 0.0000 -0.6344
vn 0.8819 0.0000 -0.4714
vn 0.9569 0.0000 -0.2903
vn 0.9952 0.0000 -0.0980
vn 0.9952 0.0000 0.0980
vn 0.9569 0.0000 0.2903
vn 0.8819 0.0000 0.4714
vn 0.7730 0.0000 0.6344
vn 0.6344 0.0000 0.7730
vn 0.4714 0.0000 0.8819
vn 0.2903 0.0000 0.9569
vn 0.0980 0.0000 0.9952
vn -0.0980 0.0000 0.9952
vn -0.2903 0.0000 0.9569
vn -0.4714 0.0000 0.8819
vn -0.6344 0.0000 0.7730
vn -0.7730 0.0000 0.6344
vn -0.8819 0.0000 0.4714
vn -0.9569 0.0000 0.2903
vn -0.9952 0.0000 0.0980
vn -0.9952 0.0000 -0.0980
vn -0.9569 0.0000 -0.2903
vn -0.8819 0.0000 -0.4714
vn -0.7730 0.0000 -0.6344
vn -0.6344 0.0000 -0.7730
vn -0.4714 0.0000 -0.8819
vn -0.0000 1.0000 -0.0000
vn -0.2903 0.0000 -0.9569
vn -0.0980 0.0000 -0.9952
vn 0.0000 -1.0000 -0.0000
usemtl None
s off
f 1//1 2//1 4//1 3//1
f 3//2 4//2 6//2 5//2
f 5//3 6//3 8//3 7//3
f 7//4 8//4 10//4 9//4
f 9//5 10//5 12//5 11//5
f 11//6 12//6 14//6 13//6
f 13//7 14//7 16//7 15//7
f 15//8 16//8 18//8 17//8
f 17//9 18//9 20//9 19//9
f 19//10 20//10 22//10 21//10
f 21//11 22//11 24//11 23//11
f 23//12 24//12 26//12 25//12
f 25//13 26//13 28//13 27//13
f 27//14 28//14 30//14 29//14
f 29//15 30//15 32//15 31//15
f 31//16 32//16 34//16 33//16
f 33//17 34//17 36//17 35//17
f 35//18 36//18 38//18 37//18
f 37//19 38//19 40//19 39//19
f 39//20 40//20 42//20 41//20
f 41//21 42//21 44//21 43//21
f 43//22 44//22 46//22 45//22
f 45//23 46//23 48//23 47//23
f 47//24 48//24 50//24 49//24
f 49//25 50//25 52//25 51//25
f 51//26 52//26 54//26 53//26
f 53//27 54//27 56//27 55//27
f 55//28 56//28 58//28 57//28
f 57//29 58//29 60//29 59//29
f 59//30 60//30 62//30 61//30
f 4//31 2//31 64//31 62//31 60//31 58//31 56//31 54//31 52//31 50//31 91//31 103//31 109//31 65//31 107//31 105//31 119//31 95//31 83//31 81//31 85//31 113//31 79//31 75//31 73//31 77//31 111//31 18//31 16//31 14//31 12//31 10//31 8//31 6//31
f 61//32 62//32 64//32 63//32
f 63//33 64//33 2//33 1//33
f 1//34 3//34 5//34 7//34 9//34 11//34 13//34 15//34 17//34 112//34 78//34 74//34 76//34 80//34 114//34 86//34 82//34 84//34 96//34 120//34 106//34 108//34 66//34 110//34 104//34 92//34 49//34 51//34 53//34 55//34 57//34 59//34 61//34 63//34
f 104//9 103//9 91//9 92//9
f 108//12 107//12 65//12 66//12
f 66//11 65//11 109//11 110//11
f 116//25 115//25 111//25 112//25
f 88//7 87//7 93//7 94//7
f 92//8 91//8 87//8 88//8
f 122//5 121//5 117//5 118//5
f 68//33 67//33 69//33 70//33
f 82//17 81//17 83//17 84//17
f 102//27 101//27 123//27 124//27
f 84//16 83//16 95//16 96//16
f 70//32 69//32 71//32 72//32
f 118//4 117//4 89//4 90//4
f 114//19 113//19 85//19 86//19
f 18//31 111//31 115//31 123//31 101//31 97//31 99//31 71//31 69//31 67//31 127//31 125//31 89//31 117//31 121//31 93//31 87//31 91//31 50//31 48//31 46//31 44//31 42//31 40//31 38//31 36//31 34//31 32//31 30//31 28//31 26//31 24//31 22//31 20//31
f 90//3 89//3 125//3 126//3
f 106//13 105//13 107//13 108//13
f 100//29 99//29 97//29 98//29
f 124//26 123//26 115//26 116//26
f 120//14 119//14 105//14 106//14
f 80//20 79//20 113//20 114//20
f 74//22 73//22 75//22 76//22
f 128//1 127//1 67//1 68//1
f 94//6 93//6 121//6 122//6
f 112//24 111//24 77//24 78//24
f 110//10 109//10 103//10 104//10
f 86//18 85//18 81//18 82//18
f 72//30 71//30 99//30 100//30
f 126//2 125//2 127//2 128//2
f 96//15 95//15 119//15 120//15
f 78//23 77//23 73//23 74//23
f 98//28 97//28 101//28 102//28
f 49//34 92//34 88//34 94//34 122//34 118//34 90//34 126//34 128//34 68//34 70//34 72//34 100//34 98//34 102//34 124//34 116//34 112//34 17//34 19//34 21//34 23//34 25//34 27//34 29//34 31//34 33//34 35//34 37//34 39//34 41//34 43//34 45//34 47//34
f 76//21 75//21 79//21 80//21
